<?xml version="1.0" encoding="UTF-8"?>
<svg width="569px" height="78px" viewBox="0 0 569 78" version="1.1" xmlns="http://www.w3.org/2000/svg" xmlns:xlink="http://www.w3.org/1999/xlink">
    <!-- Generator: Sketch 54.1 (76490) - https://sketchapp.com -->
    <title>Shape</title>
    <desc>Created with Sketch.</desc>
    <defs>
        <linearGradient x1="0.000405297056%" y1="49.9996093%" x2="100.000123%" y2="49.9996093%" id="linearGradient-1">
            <stop stop-color="#3170FF" offset="0%"></stop>
            <stop stop-color="#DD00C0" offset="50.2%"></stop>
            <stop stop-color="#FF0090" offset="100%"></stop>
        </linearGradient>
    </defs>
    <g id="Page-1" stroke="none" stroke-width="1" fill="none" fill-rule="evenodd">
        <path d="M118.921,1.207 L77.265,28.874 L77.265,5.56 C77.265,2.607 74.934,0.275 71.98,0.275 C69.027,0.275 66.695,2.606 66.695,5.56 L66.695,71.774 C66.695,74.572 69.026,77.059 71.98,77.059 C74.933,77.059 77.265,74.572 77.265,71.774 L77.265,41.465 L124.672,9.912 C127.159,8.358 127.781,5.094 126.226,2.607 C124.671,0.275 121.407,-0.347 118.921,1.207 Z M102.134,37.268 C100.269,34.937 97.005,34.47 94.673,36.18 C92.342,37.89 92.031,41.309 93.74,43.641 L117.677,74.883 C119.387,77.214 122.651,77.681 124.982,75.971 C127.314,74.106 127.78,70.842 125.915,68.51 L102.134,37.268 Z M203.476,0.275 C201.766,0.275 200.056,1.208 199.124,2.606 L175.343,33.537 C173.478,35.868 173.944,39.133 176.276,40.842 C178.608,42.707 181.872,42.241 183.581,39.909 L198.347,20.946 L198.347,71.772 C198.347,74.57 200.679,77.057 203.476,77.057 C206.429,77.057 208.761,74.57 208.761,71.772 L208.761,5.56 C208.76,2.606 206.429,0.275 203.476,0.275 Z M143.012,2.606 C142.079,1.207 140.525,0.275 138.66,0.275 C135.707,0.275 133.375,2.606 133.375,5.56 L133.375,71.774 C133.375,74.572 135.706,77.059 138.66,77.059 C141.613,77.059 143.945,74.572 143.945,71.774 L143.945,21.259 L166.949,51.879 C168.659,54.21 171.923,54.677 174.254,52.812 C176.585,51.102 177.052,47.838 175.342,45.507 L143.012,2.606 Z M55.193,0.275 C52.24,0.275 49.908,2.606 49.908,5.56 L49.908,47.216 C49.908,52.501 47.732,57.319 44.312,60.894 C40.892,64.313 36.074,66.49 30.789,66.49 C25.349,66.49 20.53,64.314 17.111,60.894 C13.692,57.319 11.515,52.656 11.515,47.216 L11.515,5.56 C11.515,2.607 9.183,0.275 6.23,0.275 C3.432,0.275 0.945,2.606 0.945,5.56 L0.945,47.216 C0.945,55.454 4.365,62.915 9.649,68.199 L9.649,68.354 C15.089,73.639 22.55,77.058 30.788,77.058 C38.87,77.058 46.331,73.638 51.771,68.354 C57.056,62.914 60.475,55.453 60.475,47.215 L60.475,5.56 C60.478,2.606 58.146,0.275 55.193,0.275 Z M243.111,2.917 L226.324,2.917 C224.925,2.917 223.682,4.16 223.682,5.559 L223.682,71.773 C223.682,73.172 224.926,74.415 226.324,74.415 L243.111,74.415 C252.592,74.104 261.297,70.218 267.669,63.846 C274.197,57.473 278.083,48.458 278.083,38.666 C278.083,28.874 274.197,19.859 267.669,13.33 C261.296,7.114 252.592,3.073 243.111,2.917 Z M263.939,60.116 C258.499,65.712 250.883,69.131 242.489,69.131 L228.966,69.131 L228.966,8.202 L242.489,8.202 C250.882,8.202 258.499,11.621 263.939,17.062 C269.535,22.658 272.799,30.274 272.799,38.667 C272.798,47.06 269.534,54.676 263.939,60.116 Z M291.295,2.917 C289.741,2.917 288.653,4.16 288.653,5.559 L288.653,71.773 C288.653,73.172 289.741,74.415 291.295,74.415 C292.694,74.415 293.937,73.171 293.937,71.773 L293.937,5.56 C293.937,4.161 292.694,2.917 291.295,2.917 Z M376.006,37.579 L375.851,37.579 L375.851,37.268 L375.696,37.268 L375.696,36.957 L375.541,36.957 L375.541,36.802 L375.386,36.802 L375.386,36.647 L375.231,36.647 L375.076,36.492 L374.921,36.492 L374.921,36.337 L374.766,36.337 L374.611,36.182 L374.3,36.182 L374.145,36.027 L340.416,36.027 C339.017,36.027 337.774,37.27 337.774,38.669 C337.774,40.068 339.017,41.311 340.416,41.311 L370.881,41.311 C370.104,48.616 366.995,55.3 362.021,60.118 C356.425,65.714 348.965,69.133 340.416,69.133 C332.023,69.133 324.406,65.713 318.966,60.118 C313.37,54.678 309.951,47.062 309.951,38.668 C309.951,30.275 313.371,22.658 318.966,17.063 C324.406,11.623 332.022,8.203 340.416,8.203 C344.613,8.203 348.498,8.98 352.073,10.534 C355.803,12.088 359.223,14.264 362.021,17.062 C362.954,18.15 364.663,18.15 365.751,17.062 C366.684,16.129 366.684,14.42 365.751,13.332 C362.487,10.068 358.446,7.426 354.094,5.716 C349.897,3.851 345.39,2.918 340.571,2.918 L340.416,2.918 C330.624,2.918 321.764,6.959 315.236,13.332 C308.708,19.86 304.822,28.72 304.822,38.668 C304.822,48.46 308.708,57.475 315.236,63.848 C321.764,70.376 330.624,74.417 340.416,74.417 C350.364,74.417 359.223,70.376 365.752,63.848 C372.125,57.475 376.166,48.46 376.166,38.668 L376.166,37.891 L376.011,37.891 L376.011,37.579 L376.006,37.579 Z M391.238,2.917 C389.839,2.917 388.596,4.16 388.596,5.559 L388.596,71.773 C388.596,73.172 389.839,74.415 391.238,74.415 C392.792,74.415 393.88,73.171 393.88,71.773 L393.88,5.56 C393.88,4.161 392.792,2.917 391.238,2.917 Z M452.323,5.56 C452.323,4.161 451.079,2.918 449.681,2.918 L407.87,2.918 C406.471,2.918 405.228,4.161 405.228,5.56 C405.228,6.959 406.471,8.202 407.87,8.202 L426.211,8.202 L426.211,71.774 C426.211,73.173 427.299,74.416 428.853,74.416 C430.252,74.416 431.495,73.172 431.495,71.774 L431.495,8.202 L449.681,8.202 C451.079,8.202 452.323,6.958 452.323,5.56 Z M478.902,4.627 L478.902,4.472 L478.747,4.472 L478.747,4.161 L478.592,4.161 L478.592,4.006 L478.437,4.006 L478.437,3.851 L478.282,3.851 L478.282,3.696 L478.127,3.696 L478.127,3.541 L477.972,3.541 L477.972,3.386 L477.817,3.386 L477.817,3.231 L477.662,3.231 C477.662,3.231 477.662,3.231 477.507,3.231 L477.507,3.076 L477.041,3.076 L476.886,2.921 L475.953,2.921 L475.798,3.076 L475.332,3.076 L475.332,3.231 C475.177,3.231 475.177,3.231 475.177,3.231 L475.022,3.231 L475.022,3.386 L474.867,3.386 L474.867,3.541 L474.712,3.541 L474.712,3.696 L474.557,3.696 L474.557,3.851 L474.402,3.851 L474.402,4.006 L474.247,4.006 L474.247,4.161 L474.092,4.161 L474.092,4.316 C474.092,4.316 474.092,4.316 474.092,4.471 L473.937,4.471 L473.937,4.626 L447.203,70.685 C446.737,72.084 447.358,73.638 448.757,74.104 C450.156,74.726 451.555,74.104 452.176,72.705 L476.423,12.553 L500.67,72.705 C501.292,74.104 502.691,74.726 504.09,74.104 C505.489,73.638 506.111,72.083 505.644,70.685 L478.902,4.627 Z M565.788,69.131 L526.619,69.131 L526.619,5.56 C526.619,4.161 525.531,2.918 523.977,2.918 C522.578,2.918 521.335,4.161 521.335,5.56 L521.335,71.774 C521.335,73.173 522.579,74.416 523.977,74.416 L565.788,74.416 C567.342,74.416 568.43,73.172 568.43,71.774 C568.431,70.219 567.343,69.131 565.788,69.131 Z" id="Shape" fill="url(#linearGradient-1)" fill-rule="nonzero"></path>
    </g>
</svg>