<?xml version="1.0" encoding="UTF-8"?>
<svg width="568px" height="78px" viewBox="0 0 568 78" version="1.1" xmlns="http://www.w3.org/2000/svg" xmlns:xlink="http://www.w3.org/1999/xlink">
    <!-- Generator: Sketch 54.1 (76490) - https://sketchapp.com -->
    <title>Shape</title>
    <desc>Created with Sketch.</desc>
    <g id="Page-1" stroke="none" stroke-width="1" fill="none" fill-rule="evenodd">
        <path d="M117.991,1.207 L76.335,28.874 L76.335,5.56 C76.335,2.607 74.004,0.275 71.05,0.275 C68.097,0.275 65.765,2.606 65.765,5.56 L65.765,71.774 C65.765,74.572 68.096,77.059 71.05,77.059 C74.003,77.059 76.335,74.572 76.335,71.774 L76.335,41.465 L123.742,9.912 C126.229,8.358 126.851,5.094 125.296,2.607 C123.742,0.275 120.478,-0.347 117.991,1.207 Z M101.204,37.268 C99.339,34.937 96.075,34.47 93.743,36.18 C91.412,37.89 91.101,41.309 92.81,43.641 L116.747,74.883 C118.457,77.214 121.721,77.681 124.052,75.971 C126.384,74.106 126.85,70.842 124.985,68.51 L101.204,37.268 Z M202.546,0.275 C200.836,0.275 199.126,1.208 198.194,2.606 L174.413,33.537 C172.548,35.868 173.014,39.133 175.345,40.842 C177.677,42.707 180.941,42.241 182.65,39.909 L197.416,20.946 L197.416,71.772 C197.416,74.57 199.748,77.057 202.545,77.057 C205.498,77.057 207.83,74.57 207.83,71.772 L207.83,5.56 C207.831,2.606 205.499,0.275 202.546,0.275 Z M142.083,2.606 C141.15,1.207 139.596,0.275 137.731,0.275 C134.778,0.275 132.446,2.606 132.446,5.56 L132.446,71.774 C132.446,74.572 134.777,77.059 137.731,77.059 C140.684,77.059 143.016,74.572 143.016,71.774 L143.016,21.259 L166.02,51.879 C167.73,54.21 170.994,54.677 173.325,52.812 C175.656,51.102 176.123,47.838 174.413,45.507 L142.083,2.606 Z M54.264,0.275 C51.311,0.275 48.979,2.606 48.979,5.56 L48.979,47.216 C48.979,52.501 46.803,57.319 43.383,60.894 C39.963,64.313 35.145,66.49 29.86,66.49 C24.42,66.49 19.601,64.314 16.182,60.894 C12.763,57.319 10.586,52.656 10.586,47.216 L10.586,5.56 C10.586,2.607 8.254,0.275 5.301,0.275 C2.503,0.275 0.016,2.606 0.016,5.56 L0.016,47.216 C0.016,55.454 3.436,62.915 8.72,68.199 L8.72,68.354 C14.16,73.639 21.621,77.058 29.859,77.058 C37.941,77.058 45.402,73.638 50.842,68.354 C56.127,62.914 59.546,55.453 59.546,47.215 L59.546,5.56 C59.548,2.606 57.217,0.275 54.264,0.275 Z M242.181,2.917 L225.394,2.917 C223.995,2.917 222.752,4.16 222.752,5.559 L222.752,71.773 C222.752,73.172 223.996,74.415 225.394,74.415 L242.181,74.415 C251.662,74.104 260.367,70.218 266.739,63.846 C273.267,57.473 277.153,48.458 277.153,38.666 C277.153,28.874 273.267,19.859 266.739,13.33 C260.367,7.114 251.663,3.073 242.181,2.917 Z M263.009,60.116 C257.569,65.712 249.953,69.131 241.559,69.131 L228.036,69.131 L228.036,8.202 L241.559,8.202 C249.952,8.202 257.569,11.621 263.009,17.062 C268.605,22.658 271.869,30.274 271.869,38.667 C271.869,47.06 268.605,54.676 263.009,60.116 Z M290.365,2.917 C288.811,2.917 287.723,4.16 287.723,5.559 L287.723,71.773 C287.723,73.172 288.811,74.415 290.365,74.415 C291.764,74.415 293.007,73.171 293.007,71.773 L293.007,5.56 C293.008,4.161 291.764,2.917 290.365,2.917 Z M375.076,37.579 L374.921,37.579 L374.921,37.268 L374.765,37.268 L374.765,36.957 L374.61,36.957 L374.61,36.802 L374.455,36.802 L374.455,36.647 L374.299,36.647 L374.144,36.492 L373.989,36.492 L373.989,36.337 L373.834,36.337 L373.678,36.182 L373.367,36.182 L373.211,36.027 L339.482,36.027 C338.083,36.027 336.84,37.27 336.84,38.669 C336.84,40.068 338.083,41.311 339.482,41.311 L369.947,41.311 C369.17,48.616 366.061,55.3 361.087,60.118 C355.491,65.714 348.031,69.133 339.482,69.133 C331.089,69.133 323.472,65.713 318.032,60.118 C312.436,54.678 309.017,47.062 309.017,38.668 C309.017,30.275 312.437,22.658 318.032,17.063 C323.472,11.623 331.088,8.203 339.482,8.203 C343.679,8.203 347.564,8.98 351.139,10.534 C354.869,12.088 358.289,14.264 361.087,17.062 C362.02,18.15 363.729,18.15 364.817,17.062 C365.75,16.129 365.75,14.42 364.817,13.332 C361.553,10.068 357.512,7.426 353.16,5.716 C348.963,3.851 344.456,2.918 339.637,2.918 L339.482,2.918 C329.69,2.918 320.83,6.959 314.302,13.332 C307.774,19.86 303.888,28.72 303.888,38.668 C303.888,48.46 307.774,57.475 314.302,63.848 C320.83,70.376 329.69,74.417 339.482,74.417 C349.43,74.417 358.289,70.376 364.817,63.848 C371.19,57.475 375.231,48.46 375.231,38.668 L375.231,37.891 L375.076,37.891 L375.076,37.579 L375.076,37.579 Z M390.308,2.917 C388.909,2.917 387.666,4.16 387.666,5.559 L387.666,71.773 C387.666,73.172 388.909,74.415 390.308,74.415 C391.862,74.415 392.95,73.171 392.95,71.773 L392.95,5.56 C392.951,4.161 391.863,2.917 390.308,2.917 Z M451.393,5.56 C451.393,4.161 450.149,2.918 448.751,2.918 L406.94,2.918 C405.541,2.918 404.298,4.161 404.298,5.56 C404.298,6.959 405.541,8.202 406.94,8.202 L425.281,8.202 L425.281,71.774 C425.281,73.173 426.369,74.416 427.923,74.416 C429.322,74.416 430.565,73.172 430.565,71.774 L430.565,8.202 L448.751,8.202 C450.15,8.202 451.393,6.958 451.393,5.56 Z M477.972,4.627 L477.972,4.472 L477.816,4.472 L477.816,4.161 L477.661,4.161 L477.661,4.006 L477.506,4.006 L477.506,3.851 L477.35,3.851 L477.35,3.696 L477.195,3.696 L477.195,3.541 L477.039,3.541 L477.039,3.386 L476.884,3.386 L476.884,3.231 L476.728,3.231 C476.728,3.231 476.728,3.231 476.573,3.231 L476.573,3.076 L476.107,3.076 L475.952,2.921 L475.019,2.921 L474.864,3.076 L474.398,3.076 L474.398,3.231 C474.243,3.231 474.243,3.231 474.243,3.231 L474.087,3.231 L474.087,3.386 L473.932,3.386 L473.932,3.541 L473.777,3.541 L473.777,3.696 L473.621,3.696 L473.621,3.851 L473.466,3.851 L473.466,4.006 L473.311,4.006 L473.311,4.161 L473.155,4.161 L473.155,4.316 C473.155,4.316 473.155,4.316 473.155,4.471 L473,4.471 L473,4.626 L446.266,70.685 C445.8,72.084 446.421,73.638 447.82,74.104 C449.219,74.726 450.618,74.104 451.24,72.705 L475.487,12.553 L499.734,72.705 C500.356,74.104 501.755,74.726 503.154,74.104 C504.553,73.638 505.175,72.083 504.708,70.685 L477.972,4.627 Z M564.859,69.131 L525.69,69.131 L525.69,5.56 C525.69,4.161 524.602,2.918 523.048,2.918 C521.649,2.918 520.406,4.161 520.406,5.56 L520.406,71.774 C520.406,73.173 521.65,74.416 523.048,74.416 L564.859,74.416 C566.413,74.416 567.501,73.172 567.501,71.774 C567.501,70.219 566.413,69.131 564.859,69.131 Z" id="Shape" fill="#000000" fill-rule="nonzero"></path>
    </g>
</svg>