<?xml version="1.0" encoding="UTF-8"?>
<svg width="626px" height="129px" viewBox="0 0 626 129" version="1.1" xmlns="http://www.w3.org/2000/svg" xmlns:xlink="http://www.w3.org/1999/xlink">
    <!-- Generator: Sketch 54.1 (76490) - https://sketchapp.com -->
    <title>Group 3</title>
    <desc>Created with Sketch.</desc>
    <g id="Page-1" stroke="none" stroke-width="1" fill="none" fill-rule="evenodd">
        <g id="Group-3" transform="translate(0.084000, 0.473000)" fill-rule="nonzero">
            <rect id="Rectangle" fill="#000000" x="-5.68434189e-14" y="3.12638804e-13" width="625.149" height="128.387"></rect>
            <path d="M131.029,62.795 C129.319,60.464 126.055,59.997 123.724,61.707 C121.393,63.417 120.926,66.836 122.636,69.168 L146.573,100.41 C148.438,102.741 151.702,103.208 154.034,101.498 C156.21,99.633 156.676,96.369 154.966,94.037 L131.029,62.795 Z M147.816,26.734 L106.16,54.401 L106.16,31.087 C106.16,28.134 103.828,25.802 101.031,25.802 C98.078,25.802 95.746,28.133 95.746,31.087 L95.746,97.301 C95.746,100.099 98.078,102.586 101.031,102.586 C103.829,102.586 106.16,100.099 106.16,97.301 L106.16,66.992 L153.722,35.439 C156.054,33.885 156.831,30.621 155.121,28.134 C153.567,25.802 150.303,25.18 147.816,26.734 Z M232.526,25.802 C230.661,25.802 229.107,26.735 228.174,28.133 L204.237,59.064 C202.527,61.395 202.994,64.66 205.17,66.369 C207.501,68.234 210.765,67.768 212.631,65.436 L227.241,46.473 L227.241,97.299 C227.241,100.097 229.573,102.584 232.526,102.584 C235.479,102.584 237.811,100.097 237.811,97.299 L237.811,31.087 C237.811,28.133 235.48,25.802 232.526,25.802 Z M171.908,28.133 C170.975,26.734 169.421,25.802 167.556,25.802 C164.758,25.802 162.271,28.133 162.271,31.087 L162.271,97.301 C162.271,100.099 164.758,102.586 167.556,102.586 C170.509,102.586 172.841,100.099 172.841,97.301 L172.841,46.786 L195.845,77.406 C197.555,79.737 200.974,80.204 203.15,78.339 C205.482,76.629 205.948,73.365 204.238,71.034 L171.908,28.133 Z M84.088,25.802 C81.29,25.802 78.803,28.133 78.803,31.087 L78.803,72.743 C78.803,78.028 76.782,82.846 73.207,86.421 C69.787,89.84 64.969,92.017 59.684,92.017 C54.399,92.017 49.581,89.841 46.161,86.421 C42.586,82.846 40.565,78.183 40.565,72.743 L40.565,31.087 C40.565,28.134 38.078,25.802 35.28,25.802 C32.327,25.802 29.995,28.133 29.995,31.087 L29.995,72.743 C29.995,80.981 33.259,88.442 38.699,93.726 L38.699,93.881 C44.139,99.166 51.444,102.585 59.682,102.585 C67.92,102.585 75.381,99.165 80.665,93.881 C86.105,88.441 89.369,80.98 89.369,72.742 L89.369,31.087 C89.373,28.133 87.041,25.802 84.088,25.802 Z M296.564,38.858 C290.347,32.641 281.642,28.6 272.006,28.444 L255.375,28.444 C253.821,28.444 252.733,29.687 252.733,31.086 L252.733,97.3 C252.733,98.699 253.821,99.942 255.375,99.942 L272.006,99.942 C281.643,99.631 290.347,95.745 296.564,89.373 L296.719,89.373 C303.092,83 307.133,73.985 307.133,64.193 C307.133,54.401 303.092,45.386 296.719,38.857 L296.564,38.857 L296.564,38.858 Z M292.989,85.643 C287.394,91.239 279.777,94.658 271.384,94.658 L257.861,94.658 L257.861,33.729 L271.384,33.729 C279.777,33.729 287.394,37.148 292.989,42.589 C298.429,48.185 301.849,55.801 301.849,64.194 C301.849,72.587 298.43,80.203 292.989,85.643 Z M320.19,28.444 C318.791,28.444 317.548,29.687 317.548,31.086 L317.548,97.3 C317.548,98.699 318.791,99.942 320.19,99.942 C321.744,99.942 322.832,98.698 322.832,97.3 L322.832,31.087 C322.833,29.688 321.744,28.444 320.19,28.444 Z M405.056,63.261 L404.901,63.261 L404.901,62.95 L404.745,62.795 L404.745,62.64 L404.59,62.64 L404.59,62.485 L404.435,62.33 L404.279,62.33 L404.279,62.175 L404.123,62.175 L404.123,62.02 L403.968,62.02 L403.813,61.865 L403.658,61.865 L403.658,61.71 L403.192,61.71 L403.192,61.555 L369.463,61.555 C368.064,61.555 366.821,62.798 366.821,64.197 C366.821,65.596 368.064,66.839 369.463,66.839 L399.772,66.839 C399.15,74.144 395.886,80.828 390.912,85.646 C385.472,91.242 377.856,94.661 369.462,94.661 C361.068,94.661 353.452,91.241 347.857,85.646 C342.417,80.206 338.997,72.59 338.997,64.196 C338.997,55.803 342.417,48.186 347.857,42.591 C353.452,37.151 360.913,33.731 369.307,33.731 L369.462,33.731 C373.659,33.731 377.545,34.508 381.119,36.062 C384.849,37.616 388.114,39.792 390.911,42.59 C391.999,43.678 393.709,43.678 394.641,42.59 C395.729,41.657 395.729,39.948 394.641,38.86 C391.377,35.596 387.491,32.954 383.139,31.244 C378.942,29.379 374.279,28.446 369.461,28.446 C359.669,28.446 350.654,32.487 344.126,38.86 C337.753,45.388 333.712,54.248 333.712,64.196 C333.712,73.988 337.753,83.003 344.126,89.376 L344.281,89.376 C350.654,95.904 359.669,99.945 369.461,99.945 C379.253,99.945 388.268,95.904 394.641,89.376 C401.169,83.003 405.21,73.988 405.21,64.196 L405.21,63.885 L405.054,63.73 L405.054,63.261 L405.056,63.261 Z M420.289,28.444 C418.735,28.444 417.647,29.687 417.647,31.086 L417.647,97.3 C417.647,98.699 418.735,99.942 420.289,99.942 C421.688,99.942 422.931,98.698 422.931,97.3 L422.931,31.087 C422.931,29.688 421.687,28.444 420.289,28.444 Z M481.374,31.087 C481.374,29.688 480.13,28.445 478.731,28.445 L436.92,28.445 C435.366,28.445 434.278,29.688 434.278,31.087 C434.278,32.486 435.366,33.729 436.92,33.729 L455.106,33.729 L455.106,97.301 C455.106,98.7 456.349,99.943 457.748,99.943 C459.147,99.943 460.39,98.699 460.39,97.301 L460.39,33.729 L478.731,33.729 C480.13,33.729 481.374,32.485 481.374,31.087 Z M507.797,30.154 L507.797,29.999 L507.641,29.844 L507.641,29.689 L507.485,29.689 L507.485,29.378 L507.329,29.378 L507.329,29.223 L507.174,29.223 L507.174,29.068 L507.018,29.068 L506.863,28.913 L506.707,28.913 L506.707,28.758 L506.396,28.758 L506.396,28.603 L505.929,28.603 L505.929,28.448 L504.841,28.448 L504.841,28.603 L504.375,28.603 L504.375,28.758 L504.064,28.758 L504.064,28.913 L503.753,28.913 L503.753,29.068 L503.598,29.068 L503.598,29.223 L503.442,29.223 L503.442,29.378 L503.287,29.378 L503.287,29.689 L503.131,29.689 L503.131,29.844 C503.131,29.844 502.975,29.844 502.975,29.999 L502.975,30.154 L476.241,96.213 C475.775,97.612 476.397,99.166 477.64,99.632 C479.039,100.254 480.593,99.632 481.059,98.233 L505.307,38.081 L529.71,98.233 C530.176,99.632 531.731,100.254 533.129,99.632 C534.373,99.166 534.994,97.611 534.528,96.213 L507.797,30.154 Z M594.839,94.658 L555.67,94.658 L555.67,31.087 C555.67,29.688 554.427,28.445 553.028,28.445 C551.629,28.445 550.385,29.688 550.385,31.087 L550.385,97.301 C550.385,98.7 551.629,99.943 553.028,99.943 L594.839,99.943 C596.238,99.943 597.481,98.699 597.481,97.301 C597.481,95.746 596.238,94.658 594.839,94.658 Z" id="Shape" fill="#FFFFFF"></path>
        </g>
    </g>
</svg>