<?xml version="1.0" encoding="UTF-8"?>
<svg width="568px" height="77px" viewBox="0 0 568 77" version="1.1" xmlns="http://www.w3.org/2000/svg" xmlns:xlink="http://www.w3.org/1999/xlink">
    <!-- Generator: Sketch 54.1 (76490) - https://sketchapp.com -->
    <title>Shape Copy</title>
    <desc>Created with Sketch.</desc>
    <g id="Page-1" stroke="none" stroke-width="1" fill="none" fill-rule="evenodd">
        <path d="M101.034,36.993 C99.324,34.662 96.06,34.195 93.729,35.905 C91.398,37.615 90.931,41.034 92.641,43.366 L116.578,74.608 C118.443,76.939 121.707,77.406 124.039,75.696 C126.215,73.831 126.681,70.567 124.971,68.235 L101.034,36.993 Z M117.821,0.932 L76.165,28.599 L76.165,5.285 C76.165,2.332 73.833,0 71.036,0 C68.083,0 65.751,2.331 65.751,5.285 L65.751,71.499 C65.751,74.297 68.083,76.784 71.036,76.784 C73.834,76.784 76.165,74.297 76.165,71.499 L76.165,41.19 L123.727,9.637 C126.059,8.083 126.836,4.819 125.126,2.332 C123.572,0 120.308,-0.622 117.821,0.932 Z M202.531,0 C200.666,0 199.112,0.933 198.179,2.331 L174.242,33.262 C172.532,35.593 172.999,38.858 175.175,40.567 C177.506,42.432 180.77,41.966 182.636,39.634 L197.246,20.671 L197.246,71.497 C197.246,74.295 199.578,76.782 202.531,76.782 C205.484,76.782 207.816,74.295 207.816,71.497 L207.816,5.285 C207.816,2.331 205.485,0 202.531,0 Z M141.913,2.331 C140.98,0.932 139.426,0 137.561,0 C134.763,0 132.276,2.331 132.276,5.285 L132.276,71.499 C132.276,74.297 134.763,76.784 137.561,76.784 C140.514,76.784 142.846,74.297 142.846,71.499 L142.846,20.984 L165.85,51.604 C167.56,53.935 170.979,54.402 173.155,52.537 C175.487,50.827 175.953,47.563 174.243,45.232 L141.913,2.331 Z M54.093,0 C51.295,0 48.808,2.331 48.808,5.285 L48.808,46.941 C48.808,52.226 46.787,57.044 43.212,60.619 C39.792,64.038 34.974,66.215 29.689,66.215 C24.404,66.215 19.586,64.039 16.166,60.619 C12.591,57.044 10.57,52.381 10.57,46.941 L10.57,5.285 C10.57,2.332 8.083,0 5.285,0 C2.332,0 0,2.331 0,5.285 L0,46.941 C0,55.179 3.264,62.64 8.704,67.924 L8.704,68.079 C14.144,73.364 21.449,76.783 29.687,76.783 C37.925,76.783 45.386,73.363 50.67,68.079 C56.11,62.639 59.374,55.178 59.374,46.94 L59.374,5.285 C59.378,2.331 57.046,0 54.093,0 Z M266.569,13.056 C260.352,6.839 251.647,2.798 242.011,2.642 L225.38,2.642 C223.826,2.642 222.738,3.885 222.738,5.284 L222.738,71.498 C222.738,72.897 223.826,74.14 225.38,74.14 L242.011,74.14 C251.648,73.829 260.352,69.943 266.569,63.571 L266.724,63.571 C273.097,57.198 277.138,48.183 277.138,38.391 C277.138,28.599 273.097,19.584 266.724,13.055 L266.569,13.055 L266.569,13.056 Z M262.994,59.841 C257.399,65.437 249.782,68.856 241.389,68.856 L227.866,68.856 L227.866,7.927 L241.389,7.927 C249.782,7.927 257.399,11.346 262.994,16.787 C268.434,22.383 271.854,29.999 271.854,38.392 C271.854,46.785 268.435,54.401 262.994,59.841 Z M290.195,2.642 C288.796,2.642 287.553,3.885 287.553,5.284 L287.553,71.498 C287.553,72.897 288.796,74.14 290.195,74.14 C291.749,74.14 292.837,72.896 292.837,71.498 L292.837,5.285 C292.838,3.886 291.749,2.642 290.195,2.642 Z M375.061,37.459 L374.906,37.459 L374.906,37.148 L374.75,36.993 L374.75,36.838 L374.595,36.838 L374.595,36.683 L374.44,36.528 L374.284,36.528 L374.284,36.373 L374.128,36.373 L374.128,36.218 L373.973,36.218 L373.818,36.063 L373.663,36.063 L373.663,35.908 L373.197,35.908 L373.197,35.753 L339.468,35.753 C338.069,35.753 336.826,36.996 336.826,38.395 C336.826,39.794 338.069,41.037 339.468,41.037 L369.777,41.037 C369.155,48.342 365.891,55.026 360.917,59.844 C355.477,65.44 347.861,68.859 339.467,68.859 C331.073,68.859 323.457,65.439 317.862,59.844 C312.422,54.404 309.002,46.788 309.002,38.394 C309.002,30.001 312.422,22.384 317.862,16.789 C323.457,11.349 330.918,7.929 339.312,7.929 L339.467,7.929 C343.664,7.929 347.55,8.706 351.124,10.26 C354.854,11.814 358.119,13.99 360.916,16.788 C362.004,17.876 363.714,17.876 364.646,16.788 C365.734,15.855 365.734,14.146 364.646,13.058 C361.382,9.794 357.496,7.152 353.144,5.442 C348.947,3.577 344.284,2.644 339.466,2.644 C329.674,2.644 320.659,6.685 314.131,13.058 C307.758,19.586 303.717,28.446 303.717,38.394 C303.717,48.186 307.758,57.201 314.131,63.574 L314.286,63.574 C320.659,70.102 329.674,74.143 339.466,74.143 C349.258,74.143 358.273,70.102 364.646,63.574 C371.174,57.201 375.215,48.186 375.215,38.394 L375.215,38.083 L375.059,37.928 L375.059,37.459 L375.061,37.459 Z M390.294,2.642 C388.74,2.642 387.652,3.885 387.652,5.284 L387.652,71.498 C387.652,72.897 388.74,74.14 390.294,74.14 C391.693,74.14 392.936,72.896 392.936,71.498 L392.936,5.285 C392.936,3.886 391.692,2.642 390.294,2.642 Z M451.379,5.285 C451.379,3.886 450.135,2.643 448.736,2.643 L406.925,2.643 C405.371,2.643 404.283,3.886 404.283,5.285 C404.283,6.684 405.371,7.927 406.925,7.927 L425.111,7.927 L425.111,71.499 C425.111,72.898 426.354,74.141 427.753,74.141 C429.152,74.141 430.395,72.897 430.395,71.499 L430.395,7.927 L448.736,7.927 C450.135,7.927 451.379,6.683 451.379,5.285 Z M477.802,4.352 L477.802,4.197 L477.646,4.042 L477.646,3.887 L477.49,3.887 L477.49,3.576 L477.334,3.576 L477.334,3.421 L477.179,3.421 L477.179,3.266 L477.023,3.266 L476.868,3.111 L476.712,3.111 L476.712,2.956 L476.401,2.956 L476.401,2.801 L475.934,2.801 L475.934,2.646 L474.846,2.646 L474.846,2.801 L474.38,2.801 L474.38,2.956 L474.069,2.956 L474.069,3.111 L473.758,3.111 L473.758,3.266 L473.603,3.266 L473.603,3.421 L473.447,3.421 L473.447,3.576 L473.292,3.576 L473.292,3.887 L473.136,3.887 L473.136,4.042 C473.136,4.042 472.98,4.042 472.98,4.197 L472.98,4.352 L446.246,70.411 C445.78,71.81 446.402,73.364 447.645,73.83 C449.044,74.452 450.598,73.83 451.064,72.431 L475.312,12.279 L499.715,72.431 C500.181,73.83 501.736,74.452 503.134,73.83 C504.378,73.364 504.999,71.809 504.533,70.411 L477.802,4.352 Z M564.844,68.856 L525.675,68.856 L525.675,5.285 C525.675,3.886 524.432,2.643 523.033,2.643 C521.634,2.643 520.39,3.886 520.39,5.285 L520.39,71.499 C520.39,72.898 521.634,74.141 523.033,74.141 L564.844,74.141 C566.243,74.141 567.486,72.897 567.486,71.499 C567.486,69.944 566.243,68.856 564.844,68.856 Z" id="Shape-Copy" fill="#FFFFFF" fill-rule="nonzero"></path>
    </g>
</svg>